<svg width="32" height="32" viewBox="0 0 32 32" fill="none" xmlns="http://www.w3.org/2000/svg">
<rect width="32" height="32" rx="8" fill="#2563eb"/>
<path d="M8 24V8h4.8c1.6 0 2.8.4 3.6 1.2.8.8 1.2 1.9 1.2 3.3 0 .9-.2 1.7-.6 2.3-.4.6-.9 1.1-1.6 1.4v.2c.8.2 1.4.6 1.8 1.3.4.7.6 1.5.6 2.4 0 1.5-.4 2.7-1.3 3.5-.9.8-2.1 1.2-3.7 1.2H8zm3.2-9.6h1.4c.6 0 1-.1 1.3-.4.3-.3.4-.7.4-1.2s-.1-.9-.4-1.2c-.3-.3-.7-.4-1.3-.4h-1.4v3.2zm0 6.4h1.6c.6 0 1.1-.1 1.4-.4.3-.3.5-.7.5-1.3s-.2-1-.5-1.3c-.3-.3-.8-.4-1.4-.4h-1.6v3.4z" fill="white"/>
</svg>